<svg xmlns="http://www.w3.org/2000/svg" version="1.1" xmlns:xlink="http://www.w3.org/1999/xlink" xmlns:svgjs="http://svgjs.dev/svgjs" width="2000" height="2250" viewBox="0 0 2000 2250"><g transform="matrix(1,0,0,1,0.0004624580885774776,0)"><svg viewBox="0 0 320 360" data-background-color="#4b91f1" preserveAspectRatio="xMidYMid meet" height="2250" width="2000" xmlns="http://www.w3.org/2000/svg" xmlns:xlink="http://www.w3.org/1999/xlink"><g id="tight-bounds" transform="matrix(1,0,0,1,-0.00007399329416557521,0)"><svg viewBox="0 0 320 360" height="360" width="320"><g><svg></svg></g><g><svg viewBox="0 0 320 360" height="360" width="320"><g><path transform="translate(-17.30355,3.60951) scale(3.54253,3.54253)" d="M50 95v0c-2.2 0-4.1-1.4-4.7-3.5-0.3-1.1-1.5-1.7-2.5-1.4-0.4 0.1-0.8 0.4-1.1 0.8-1.6 2.2-4.6 2.8-6.9 1.2-1.4-0.9-2.2-2.5-2.1-4.2 0-1.1-0.9-2.1-2-2.1-0.5 0-0.9 0.1-1.3 0.4-2.2 1.6-5.3 1.2-6.9-1-1-1.3-1.3-3-0.7-4.6 0.4-1.1-0.2-2.2-1.3-2.6-0.4-0.1-0.9-0.1-1.3 0-2.6 0.9-5.4-0.5-6.3-3.1-0.5-1.5-0.3-3.3 0.7-4.6 0.7-0.9 0.5-2.2-0.4-2.8-0.4-0.3-0.8-0.4-1.3-0.4-2.7 0.1-5-2.1-5-4.8 0-1.7 0.8-3.2 2.1-4.2 0.9-0.6 1.1-1.9 0.5-2.8-0.3-0.4-0.6-0.6-1.1-0.8-2.6-0.8-4.1-3.6-3.3-6.2 0.5-1.6 1.7-2.8 3.3-3.3 1.1-0.3 1.7-1.5 1.4-2.5-0.1-0.4-0.4-0.8-0.8-1.1-2.2-1.6-2.8-4.6-1.2-6.9 0.9-1.4 2.5-2.2 4.2-2.1 1.1 0 2.1-0.9 2.1-2 0-0.5-0.1-0.9-0.4-1.3-1.6-2.2-1.2-5.3 1-6.9 1.3-1 3-1.3 4.6-0.7 1.1 0.4 2.2-0.2 2.6-1.3 0.1-0.4 0.1-0.9 0-1.3-0.9-2.6 0.5-5.4 3.1-6.3 1.5-0.5 3.3-0.3 4.6 0.7 0.9 0.7 2.2 0.5 2.8-0.4 0.3-0.4 0.4-0.8 0.4-1.3-0.1-2.7 2.1-5 4.8-5 1.7 0 3.2 0.8 4.2 2.1 0.6 0.9 1.9 1.1 2.8 0.5 0.4-0.3 0.6-0.6 0.8-1.1 0.8-2.6 3.6-4.1 6.2-3.3 1.6 0.5 2.8 1.7 3.3 3.3v0c0.2 0.7 0.8 1.3 1.6 1.4 0.8 0.1 1.5-0.2 2-0.8 1.6-2.2 4.6-2.8 6.9-1.2 1.4 0.9 2.2 2.5 2.1 4.2 0 1.1 0.9 2.1 2 2.1 0.5 0 0.9-0.1 1.3-0.4 2.2-1.6 5.3-1.2 6.9 1 1 1.3 1.3 3 0.7 4.6-0.4 1.1 0.2 2.2 1.3 2.6 0.4 0.1 0.9 0.1 1.3 0 2.6-0.9 5.4 0.5 6.3 3.1 0.5 1.5 0.3 3.3-0.7 4.6-0.7 0.9-0.5 2.2 0.4 2.8 0.4 0.3 0.8 0.4 1.3 0.4 2.7-0.1 5 2.1 5 4.8 0 1.7-0.8 3.2-2.1 4.2-0.7 0.4-1 1.2-0.9 2 0.1 0.8 0.7 1.4 1.4 1.6 2.6 0.8 4.1 3.6 3.3 6.2-0.5 1.6-1.7 2.8-3.3 3.3-1.1 0.3-1.7 1.5-1.4 2.5 0.1 0.4 0.4 0.8 0.8 1.1 2.2 1.6 2.8 4.6 1.2 6.9-0.9 1.4-2.5 2.2-4.2 2.1-0.8 0-1.5 0.4-1.9 1.1-0.4 0.7-0.3 1.5 0.2 2.2 1.6 2.2 1.2 5.3-1 6.9-1.3 1-3 1.3-4.6 0.7-1.1-0.4-2.2 0.2-2.6 1.3-0.1 0.4-0.1 0.9 0 1.3 0.9 2.6-0.5 5.4-3.1 6.3-1.5 0.5-3.3 0.3-4.6-0.7-0.9-0.7-2.2-0.5-2.8 0.4-0.3 0.4-0.4 0.8-0.4 1.3 0.1 2.7-2.1 5-4.8 5-1.7 0-3.2-0.8-4.2-2.1-0.4-0.6-1.2-1-2-0.8-0.8 0.1-1.4 0.7-1.6 1.4-0.6 2.1-2.5 3.5-4.7 3.5zM43.3 87.2c0.3 0 0.5 0 0.8 0.1 1.9 0.3 3.4 1.6 3.9 3.4 0.3 1.1 1.5 1.7 2.5 1.3 0.6-0.2 1.1-0.7 1.3-1.3 0.8-2.6 3.6-4.1 6.2-3.3 1 0.3 2 1 2.6 1.9 0.7 0.9 1.9 1.1 2.9 0.4 0.5-0.4 0.8-1 0.8-1.6-0.1-2.7 2.1-5 4.8-5 1.1 0 2.2 0.3 3.1 1 0.9 0.7 2.2 0.5 2.8-0.4 0.4-0.5 0.5-1.3 0.3-1.9-0.9-2.6 0.4-5.4 3-6.3 1.1-0.4 2.2-0.4 3.3 0 1.1 0.4 2.2-0.2 2.6-1.3 0.2-0.6 0.1-1.4-0.3-1.9-1.6-2.2-1.2-5.3 1-6.9 0.9-0.7 2-1 3.1-1 1.1 0 2-0.9 2.1-2 0-0.7-0.3-1.3-0.9-1.7-2.2-1.6-2.8-4.6-1.2-6.9 0.6-0.9 1.5-1.6 2.6-1.9 1.1-0.3 1.7-1.5 1.3-2.5-0.2-0.6-0.7-1.1-1.3-1.3-2.6-0.8-4.1-3.6-3.3-6.2 0.3-1 1-2 1.9-2.6 0.9-0.7 1.1-2 0.4-2.9-0.4-0.5-1-0.8-1.6-0.8-2.7 0.1-5-2.1-5-4.8 0-1.1 0.3-2.2 1-3.1 0.7-0.9 0.5-2.2-0.4-2.8-0.5-0.4-1.3-0.5-1.9-0.3-2.6 0.9-5.4-0.4-6.3-3-0.4-1.1-0.4-2.2 0-3.3 0.4-1.1-0.2-2.2-1.3-2.6-0.6-0.2-1.4-0.1-1.9 0.3-2.2 1.6-5.3 1.2-6.9-1-0.7-0.9-1-2-1-3.1 0-1.1-0.9-2-2.1-2-0.6 0-1.3 0.3-1.6 0.8-1.6 2.2-4.6 2.8-6.9 1.2-0.9-0.6-1.6-1.5-1.9-2.6v0c-0.3-1.1-1.5-1.7-2.5-1.3-0.6 0.2-1.1 0.7-1.3 1.3-0.8 2.6-3.6 4.1-6.2 3.3-1-0.3-2-1-2.6-1.9-0.7-0.9-1.9-1.1-2.9-0.4-0.5 0.4-0.8 1-0.8 1.6 0.1 2.7-2.1 5-4.8 5-1.1 0-2.2-0.3-3.1-1-0.9-0.7-2.2-0.5-2.8 0.4-0.4 0.5-0.5 1.3-0.3 1.9 0.9 2.6-0.4 5.4-3 6.3-1.1 0.4-2.2 0.4-3.3 0-1.1-0.4-2.2 0.2-2.6 1.3-0.2 0.6-0.1 1.4 0.3 1.9 1.6 2.2 1.2 5.3-1 6.9-0.9 0.7-2 1-3.1 1-1.1 0-2 0.9-2 2.1 0 0.6 0.3 1.3 0.8 1.6 2.2 1.6 2.8 4.6 1.2 6.9-0.6 0.9-1.5 1.6-2.6 1.9-1.1 0.3-1.7 1.5-1.3 2.5 0.2 0.6 0.7 1.1 1.3 1.3 2.6 0.8 4.1 3.6 3.3 6.2-0.3 1-1 2-1.9 2.6-0.9 0.7-1.1 1.9-0.4 2.9 0.4 0.5 1 0.8 1.6 0.8 2.7-0.1 5 2.1 5 4.8 0 1.1-0.3 2.2-1 3.1-0.7 0.9-0.5 2.2 0.4 2.8 0.5 0.4 1.3 0.5 1.9 0.3 2.6-0.9 5.4 0.4 6.3 3 0.4 1.1 0.4 2.2 0 3.3-0.4 1.1 0.2 2.2 1.3 2.6 0.6 0.2 1.4 0.1 1.9-0.3 2.2-1.6 5.3-1.2 6.9 1 0.7 0.9 1 2 1 3.1 0 1.1 0.9 2 2 2.1 0.7 0 1.3-0.3 1.7-0.9 1-1.3 2.5-2.1 4.1-2.1z" fill="#000000" fill-rule="nonzero" stroke="none" stroke-width="1" stroke-linecap="butt" stroke-linejoin="miter" stroke-miterlimit="10" stroke-dasharray="" stroke-dashoffset="0" font-family="none" font-weight="none" font-size="none" text-anchor="none" style="mix-blend-mode: normal" data-fill-palette-color="tertiary"></path></g><g transform="matrix(1,0,0,1,70,90)"><svg viewBox="0 0 180 180" height="180" width="180"><g><svg viewBox="0 0 180 180" height="180" width="180"><g><svg viewBox="0 0 180 180" height="180" width="180"><g id="textblocktransform"><svg viewBox="0 0 180 180" height="180" width="180" id="textblock"><g><svg viewBox="0 0 180 180" height="180" width="180"><g transform="matrix(1,0,0,1,36.966991411008934,36.966991411008934)"><svg viewBox="0 0 106.06601717798213 106.06601717798213" height="106.06601717798213" width="106.06601717798213"><g id="icon-0"><circle r="53" cx="53.033008588991066" cy="53.033008588991066" fill="#000000" data-fill-palette-color="accent"></circle><svg xmlns="http://www.w3.org/2000/svg" xmlns:xlink="http://www.w3.org/1999/xlink" version="1.1" x="15.90990257669732" y="15.90990257669732" viewBox="10.402000000000006 5.747999999999999 79.19509058261887 88.504" enable-background="new 0 0 100 100" xml:space="preserve" height="74.24621202458749" width="74.24621202458749" class="icon-xg-0" data-fill-palette-color="quaternary" id="xg-0"><path d="M37.603 61.628V30.053H26v31.57c-4.071 2.113-6.891 6.323-6.891 11.226 0 7.01 5.684 12.693 12.694 12.693 7.01 0 12.693-5.684 12.693-12.693C44.496 67.946 41.677 63.733 37.603 61.628zM46.307 20.255c0-7.999-6.511-14.507-14.51-14.507s-14.501 6.511-14.501 14.507V57.18c-4.343 3.984-6.894 9.616-6.894 15.669 0 11.795 9.605 21.403 21.401 21.403 11.795 0 21.394-9.608 21.394-21.403 0-6.053-2.546-11.69-6.89-15.675V20.255zM47.395 72.854c0 8.596-6.993 15.589-15.595 15.589-8.594 0-15.589-6.993-15.589-15.589 0-5.208 2.601-9.991 6.894-12.878V20.261c0-4.797 3.896-8.704 8.696-8.704s8.704 3.904 8.704 8.704v39.716C44.793 62.863 47.395 67.646 47.395 72.854zM89.084 52.477L75.33 28.642c-1.207-2.091-3.173-2.091-4.38 0L57.188 52.477c-1.201 2.082-0.216 3.785 2.188 3.785h1.113c2.408 0 4.372 1.964 4.372 4.372v7.919c0 2.406 1.969 4.372 4.372 4.372h7.809c2.408 0 4.375-1.966 4.375-4.372v-7.919c0-2.408 1.96-4.372 4.369-4.372h1.116C89.305 56.262 90.285 54.559 89.084 52.477z" fill="#ffffff" data-fill-palette-color="quaternary"></path></svg></g></svg></g><g id="text-0"><path d="M0.447 67.003l-0.447-0.164 2.162-5.884 8.953 3.29c-0.656-0.543-1.115-1.165-1.375-1.864-0.258-0.706-0.186-1.607 0.217-2.704v0c0.927-2.522 2.752-3.282 5.477-2.281v0l7.356 2.703 0.503-1.368 0.437 0.16-2.542 6.92-0.438-0.161 0.371-1.008-7.946-2.919c-0.976-0.359-1.631-0.524-1.965-0.496-0.332 0.022-0.56 0.204-0.686 0.546v0c-0.193 0.526-0.021 1.114 0.517 1.765 0.538 0.651 1.294 1.155 2.27 1.514v0l6.748 2.48 0.388-1.055 0.437 0.161-2.55 6.938-0.437-0.161 0.493-1.34-17.451-6.412z" fill="#000000" data-fill-palette-color="primary"></path><path d="M36.309 33.849v0l-1.557-1.565c-1.191-1.196-2.122-2.003-2.794-2.419-0.672-0.417-1.24-0.394-1.704 0.067v0c-0.273 0.271-0.417 0.567-0.432 0.887-0.01 0.315 0.122 0.688 0.399 1.118v0c0.442 0.665 1.228 1.564 2.356 2.698v0l1.429 1.435c1.338 1.344 2.181 2.11 2.529 2.297 0.348 0.197 0.651 0.338 0.909 0.425v0c0.429 0.154 0.84 0.035 1.232-0.355v0c0.478-0.476 0.518-1.063 0.119-1.761v0c-0.285-0.507-1.114-1.449-2.486-2.827zM38.976 38.81c-1.541 1.533-3.096 2.296-4.667 2.287-1.57 0.001-3.089-0.735-4.556-2.208-1.462-1.469-2.167-3.019-2.115-4.652 0.056-1.637 0.845-3.213 2.366-4.728 1.526-1.519 3.029-2.287 4.509-2.302 1.48-0.016 2.967 0.728 4.463 2.23v0c3.124 3.139 3.124 6.263 0 9.373z" fill="#000000" data-fill-palette-color="primary"></path><path d="M59.476 19.888v0l-3-7.634-1.328 0.523-0.171-0.434 1.329-0.522-1.229-3.129 4.077-2.886 1.666 4.241 3.148-1.237 0.17 0.434-3.147 1.237 3.211 8.17c0.299 0.76 0.593 1.287 0.881 1.58 0.292 0.299 0.682 0.352 1.173 0.159 0.484-0.19 0.813-0.599 0.987-1.226 0.168-0.625 0.143-1.38-0.075-2.266v0l0.433-0.116c0.311 1.161 0.304 2.187-0.02 3.077-0.328 0.883-1.16 1.587-2.499 2.113-1.338 0.526-2.47 0.663-3.396 0.41-0.92-0.255-1.656-1.086-2.21-2.494z" fill="#000000" data-fill-palette-color="primary"></path><path d="M122.021 15.703c0.605-1.683 0.932-2.843 0.981-3.478 0.043-0.637-0.174-1.042-0.65-1.213-0.47-0.169-0.998-0.029-1.583 0.421-0.594 0.454-1.075 1.195-1.445 2.225v0l-1.637 4.555c-0.253 0.705-0.325 1.354-0.215 1.945 0.11 0.592 0.432 0.984 0.966 1.176 0.534 0.192 1.025-0.037 1.473-0.687 0.455-0.647 1.005-1.87 1.652-3.667v0zM117.319 0.703l5.899 2.12-3.082 8.576c1.127-1.18 2.444-1.5 3.949-0.958v0c3.056 1.098 3.852 3.683 2.388 7.755v0c-0.744 2.071-1.715 3.444-2.911 4.119-1.192 0.683-2.63 0.722-4.314 0.117v0c-0.851-0.306-1.456-0.67-1.813-1.093-0.349-0.427-0.497-0.971-0.446-1.634v0l-0.692 1.387-5.584-2.007 0.158-0.438 1.343 0.482 6.288-17.495-1.344-0.483z" fill="#000000" data-fill-palette-color="primary"></path><path d="M151.289 44.725l-0.332 0.327-4.168-4.223 1.149-1.546c-0.689 0.291-1.358 0.373-2.007 0.244-0.653-0.124-1.357-0.567-2.11-1.331v0c-1.892-1.917-1.805-3.895 0.261-5.934v0l5.578-5.506-1.024-1.038 0.332-0.327 4.431 4.49-6.357 6.274c-0.74 0.73-1.178 1.262-1.314 1.595-0.131 0.338-0.04 0.666 0.273 0.983 0.308 0.312 0.778 0.404 1.409 0.274 0.621-0.13 1.273-0.531 1.955-1.204v0l5.672-5.598-0.839-0.851 0.332-0.327 4.246 4.303-8.49 8.379z" fill="#000000" data-fill-palette-color="primary"></path><path d="M171.938 57.096l-0.364-0.999 0.437-0.159 2.589 7.096-0.438 0.16-0.482-1.323-7.152 5.627 9.158-0.128-0.597-1.636 0.437-0.16 1.26 3.453-0.438 0.16-0.447-1.227-14.854 0.233c-1.731 0.021-3.023-0.191-3.875-0.634-0.86-0.448-1.465-1.151-1.814-2.109-0.352-0.964-0.406-1.803-0.164-2.516 0.234-0.718 0.694-1.201 1.379-1.451 0.685-0.25 1.274-0.26 1.767-0.031 0.485 0.226 0.835 0.633 1.05 1.223v0c0.493 1.351 0.178 2.231-0.945 2.641v0c-0.247 0.09-0.56 0.15-0.936 0.18v0l-0.313-0.856c-0.423 0.003-0.739 0.101-0.949 0.292-0.206 0.183-0.247 0.446-0.122 0.788v0c0.245 0.672 0.792 1.148 1.641 1.428 0.849 0.279 2.039 0.409 3.57 0.39v0l1.707-0.019-0.784-2.15z" fill="#000000" data-fill-palette-color="primary"></path><path d="M7.505 93.013c0-1.236 1.002-2.238 2.238-2.238 1.236 0 2.238 1.002 2.239 2.238 0 1.236-1.002 2.238-2.239 2.239-1.236 0-2.238-1.002-2.238-2.239z" fill="#000000" data-fill-palette-color="primary"></path><path d="M171.548 93.013c0-1.236 1.002-2.238 2.238-2.238 1.236 0 2.238 1.002 2.239 2.238 0 1.236-1.002 2.238-2.239 2.239-1.236 0-2.238-1.002-2.238-2.239z" fill="#000000" data-fill-palette-color="primary"></path></g><g id="text-1"><path d="M25.43 109.764l0.474-0.178 2.363 6.295-9.566 3.59c0.907-0.023 1.712 0.162 2.414 0.554 0.702 0.393 1.272 1.17 1.709 2.333v0c1.013 2.699 0.065 4.594-2.842 5.684v0l-7.86 2.95 0.552 1.469-0.474 0.178-2.775-7.395 0.474-0.178 0.402 1.072 8.485-3.184c1.049-0.394 1.699-0.717 1.95-0.97 0.251-0.253 0.308-0.563 0.171-0.929v0c-0.209-0.556-0.76-0.912-1.655-1.067-0.886-0.151-1.853-0.029-2.902 0.365v0l-7.205 2.704 0.42 1.118-0.474 0.178-2.783-7.414 0.474-0.177 0.538 1.431 18.648-6.998z" fill="#000000" data-fill-palette-color="primary"></path><path d="M35.295 154.201v0l1.661-1.69c1.263-1.286 2.116-2.294 2.557-3.023 0.442-0.73 0.41-1.343-0.095-1.84v0c-0.294-0.289-0.613-0.436-0.956-0.442-0.339-0.011-0.736 0.138-1.192 0.447v0c-0.707 0.479-1.661 1.33-2.863 2.554v0l-1.525 1.553c-1.419 1.445-2.23 2.357-2.432 2.736-0.197 0.374-0.342 0.7-0.435 0.977v0c-0.168 0.46-0.04 0.898 0.384 1.314v0c0.52 0.511 1.153 0.546 1.899 0.105v0c0.537-0.306 1.536-1.202 2.997-2.691zM30.008 157.113c-1.662-1.632-2.498-3.29-2.508-4.975-0.015-1.68 0.755-3.313 2.312-4.897 1.561-1.589 3.215-2.368 4.963-2.336 1.748 0.042 3.445 0.871 5.092 2.489 1.647 1.618 2.487 3.219 2.52 4.803 0.033 1.585-0.745 3.186-2.334 4.804v0c-3.325 3.386-6.674 3.423-10.045 0.112z" fill="#000000" data-fill-palette-color="primary"></path><path d="M57.731 170.948v0l3.177-8.195-1.425-0.552 0.183-0.472 1.425 0.552 1.3-3.351 5.308 0.678-1.764 4.551 3.38 1.31-0.183 0.472-3.38-1.31-3.401 8.771c-0.315 0.812-0.465 1.442-0.449 1.889 0.017 0.441 0.287 0.763 0.809 0.965 0.522 0.203 1.079 0.121 1.669-0.243 0.593-0.371 1.123-0.984 1.592-1.837v0l0.426 0.219c-0.602 1.142-1.354 1.944-2.258 2.405-0.896 0.463-2.062 0.417-3.497-0.14-1.441-0.559-2.432-1.272-2.971-2.14-0.546-0.87-0.526-2.061 0.059-3.572z" fill="#000000" data-fill-palette-color="primary"></path><path d="M121.108 168.842c-0.636-1.809-1.15-2.995-1.542-3.558-0.398-0.561-0.852-0.752-1.361-0.574-0.509 0.179-0.854 0.655-1.033 1.427-0.177 0.778-0.072 1.718 0.315 2.819v0l1.724 4.9c0.264 0.751 0.642 1.338 1.134 1.759 0.492 0.421 1.024 0.531 1.597 0.329 0.567-0.199 0.819-0.724 0.756-1.575-0.061-0.844-0.431-2.231-1.11-4.161v0zM107.052 159.553l6.343-2.231 3.242 9.217c0.131-1.742 1.006-2.898 2.624-3.467v0c3.28-1.154 5.688 0.454 7.224 4.823v0c0.784 2.229 0.909 4.028 0.374 5.396-0.532 1.375-1.7 2.38-3.502 3.014v0c-0.917 0.323-1.668 0.426-2.252 0.309-0.576-0.112-1.068-0.462-1.475-1.048v0l0.367 1.621-5.999 2.11-0.168-0.478 1.442-0.507-6.61-18.789-1.442 0.507z" fill="#000000" data-fill-palette-color="primary"></path><path d="M159.756 149.608l0.358 0.358-4.501 4.506-1.654-1.224c0.315 0.735 0.407 1.451 0.273 2.148-0.128 0.702-0.601 1.461-1.417 2.278v0c-2.037 2.039-4.157 1.959-6.358-0.24v0l-5.939-5.932-1.102 1.103-0.358-0.358 4.773-4.778 6.77 6.762c0.793 0.792 1.368 1.257 1.726 1.395 0.368 0.138 0.718 0.04 1.053-0.294 0.334-0.334 0.427-0.838 0.278-1.511-0.139-0.673-0.571-1.372-1.297-2.097v0l-6.039-6.032-0.909 0.909-0.358-0.357 4.572-4.578 9.042 9.031z" fill="#000000" data-fill-palette-color="primary"></path><path d="M160.393 125.69l-0.399 1.072-0.475-0.177 2.824-7.582 0.474 0.177-0.526 1.414 9.743 0.387-7.552-6.27-0.65 1.746-0.475-0.177 1.371-3.682 0.475 0.177-0.488 1.309 12.272 10.135c1.424 1.186 2.332 2.259 2.723 3.219 0.385 0.958 0.386 1.952 0.002 2.983-0.382 1.025-0.917 1.747-1.606 2.168-0.694 0.412-1.407 0.481-2.141 0.207-0.728-0.271-1.214-0.668-1.459-1.191-0.242-0.53-0.247-1.108-0.013-1.734v0c0.539-1.449 1.413-1.948 2.622-1.498v0c0.259 0.097 0.552 0.267 0.879 0.511v0l-0.339 0.911c0.347 0.288 0.669 0.429 0.966 0.424 0.306-0.009 0.527-0.196 0.663-0.563v0c0.266-0.715 0.149-1.483-0.352-2.303-0.495-0.818-1.372-1.75-2.633-2.796v0l-1.411-1.173-0.855 2.296z" fill="#000000" data-fill-palette-color="primary"></path></g></svg></g></svg></g></svg></g><g></g></svg></g></svg></g></svg></g><defs></defs></svg><rect width="320" height="360" fill="none" stroke="none" visibility="hidden"></rect></g></svg></g></svg>